<svg width="56.000000" height="56.000000" viewBox="0 0 56 56" fill="none" xmlns="http://www.w3.org/2000/svg" xmlns:xlink="http://www.w3.org/1999/xlink">
	<defs>
	</defs>
	<rect id="button" width="55.000000" height="55.000000" transform="translate(0.500000 0.500000)" fill-opacity="1.000000"/>
	<rect id="icon" width="24.000000" height="24.000000" transform="translate(16.000000 16.000000)" fill-opacity="1"/>
	<g clip-path="url(#clip0_1003)">
		<path id="Vector" d="M35.1428 24C36.1686 24 37 24.8314 37 25.8572L37 35.1428C37 36.1686 36.1686 37 35.1428 37L25.8572 37C24.8314 37 24 36.1686 24 35.1428L24 25.8572C24 24.8314 24.8314 24 25.8572 24L35.1428 24Z" stroke="currentColor" stroke-opacity="1.000000" stroke-width="2.000000" stroke-linejoin="round"/>
		<path id="Vector" d="M20.8572 32C19.8357 32 19 31.1643 19 30.1428L19 20.8572C19 19.8357 19.8357 19 20.8572 19L30.1428 19C31.1643 19 32 19.8357 32 20.8572" stroke="currentColor" stroke-opacity="1.000000" stroke-width="2.000000" stroke-linejoin="round" stroke-linecap="round"/>
	</g>
	<rect id="button" width="55.000000" height="55.000000" transform="translate(0.500000 0.500000)" stroke="currentColor" stroke-opacity="1.000000" stroke-width="1.000000"/>
</svg>
