<svg width="24.000000" height="24.000000" viewBox="0 0 24 24" fill="none" xmlns="http://www.w3.org/2000/svg" xmlns:xlink="http://www.w3.org/1999/xlink">
	<desc>
			Created with Pixso.
	</desc>
	<defs>
		<clipPath id="clip14_410">
			<rect id="name=phone" width="24.000000" height="24.000000" fill="white" fill-opacity="0"/>
		</clipPath>
	</defs>
	<g clip-path="url(#clip14_410)">
		<path id="Vector" d="M20.9995 19.1862C21.0005 19.4377 20.9487 19.6868 20.8479 19.9172C20.7468 20.1477 20.5989 20.3546 20.4131 20.5247C20.2273 20.6947 20.0081 20.8242 19.7693 20.9048C19.5305 20.9854 19.2776 21.0153 19.0264 20.9927C16.2415 20.6907 13.5664 19.741 11.2161 18.2197C9.0293 16.8329 7.17529 14.9827 5.78589 12.8003C4.25635 10.4438 3.30444 7.76111 3.00732 4.96912C2.98462 4.71936 3.0144 4.46765 3.09473 4.22998C3.1748 3.99231 3.30371 3.77393 3.47314 3.58862C3.64258 3.40344 3.84888 3.25549 4.07861 3.15405C4.30859 3.05273 4.55713 3.00037 4.80835 3.00012L7.52344 3.00012C7.96265 2.99573 8.38843 3.151 8.72144 3.43689C9.05444 3.72266 9.27197 4.11963 9.3335 4.55371C9.44824 5.42078 9.66064 6.27234 9.96704 7.0918C10.0889 7.41504 10.1152 7.76636 10.043 8.10425C9.9707 8.44202 9.80322 8.75208 9.55981 8.99756L8.4104 10.1448C9.69873 12.406 11.5747 14.2783 13.8406 15.5642L14.99 14.4171C15.2361 14.1742 15.5466 14.0068 15.8853 13.9348C16.2236 13.8628 16.5757 13.889 16.8997 14.0106C17.7207 14.3164 18.574 14.5286 19.4429 14.6428C19.8823 14.7048 20.2839 14.9258 20.571 15.2638C20.8579 15.6019 21.0105 16.0334 20.9995 16.4764L20.9995 19.1862Z" stroke="#00A55A" stroke-opacity="1.000000" stroke-width="2.000000" stroke-linejoin="round"/>
	</g>
</svg>
